{
  "accessors": [
    {
      "bufferView": 1,
      "componentType": 5126,
      "count": 784,
      "max": [
        2.9972972869873047,
        1.7258801460266113,
        2.820648670196533
      ],
      "min": [
        -10.603416442871094,
        -1.7258801460266113,
        -0.015535414218902588
      ],
      "type": "VEC3"
    },
    {
      "bufferView": 1,
      "byteOffset": 9408,
      "componentType": 5126,
      "count": 784,
      "max": [
        0.8707643747329712,
        0.9142017960548401,
        0.9996856451034546
      ],
      "min": [
        -0.9054161310195923,
        -0.9142016172409058,
        -1.0
      ],
      "type": "VEC3"
    },
    {
      "bufferView": 0,
      "componentType": 5125,
      "count": 1212,
      "type": "SCALAR"
    },
    {
      "bufferView": 1,
      "byteOffset": 18816,
      "componentType": 5126,
      "count": 720,
      "max": [
        7.270711421966553,
        8.06659984588623,
        3.537430763244629
      ],
      "min": [
        -15.882905960083008,
        -8.856362342834473,
        1.6087214946746826
      ],
      "type": "VEC3"
    },
    {
      "bufferView": 1,
      "byteOffset": 27456,
      "componentType": 5126,
      "count": 720,
      "max": [
        0.813243567943573,
        0.6258192658424377,
        0.9999763369560242
      ],
      "min": [
        -0.8132444024085999,
        -0.6258199214935303,
        -0.9999763369560242
      ],
      "type": "VEC3"
    },
    {
      "bufferView": 0,
      "byteOffset": 4848,
      "componentType": 5125,
      "count": 720,
      "type": "SCALAR"
    }
  ],
  "asset": {
    "extras": {
      "author": "pedro.coelhho (https://sketchfab.com/pedro.coelhho)",
      "license": "CC-BY-4.0 (http://creativecommons.org/licenses/by/4.0/)",
      "source": "https://sketchfab.com/3d-models/arvore-tree-low-poly-24d56c45fccd403182914474534ea954",
      "title": "Árvore / Tree Low Poly"
    },
    "generator": "Sketchfab-15.29.0",
    "version": "2.0"
  },
  "bufferViews": [
    {
      "buffer": 0,
      "byteLength": 7728,
      "name": "floatBufferViews",
      "target": 34963
    },
    {
      "buffer": 0,
      "byteLength": 36096,
      "byteOffset": 7728,
      "byteStride": 12,
      "name": "floatBufferViews",
      "target": 34962
    }
  ],
  "buffers": [
    {
      "byteLength": 43824,
      "uri": "scene.bin"
    }
  ],
  "materials": [
    {
      "doubleSided": true,
      "name": "Madeira",
      "pbrMetallicRoughness": {
        "baseColorFactor": [
          0.281009,
          0.0690554,
          0.0121904,
          1.0
        ],
        "metallicFactor": 0.0,
        "roughnessFactor": 0.8239417257461427
      }
    },
    {
      "doubleSided": true,
      "name": "Material.001",
      "pbrMetallicRoughness": {
        "baseColorFactor": [
          0.34486,
          0.507068,
          0.00736582,
          1.0
        ],
        "metallicFactor": 0.0,
        "roughnessFactor": 0.8239417257461427
      }
    }
  ],
  "meshes": [
    {
      "name": "Cylinder_Madeira_0",
      "primitives": [
        {
          "attributes": {
            "NORMAL": 1,
            "POSITION": 0
          },
          "indices": 2,
          "material": 0,
          "mode": 4
        }
      ]
    },
    {
      "name": "Cylinder_Material.001_0",
      "primitives": [
        {
          "attributes": {
            "NORMAL": 4,
            "POSITION": 3
          },
          "indices": 5,
          "material": 1,
          "mode": 4
        }
      ]
    }
  ],
  "nodes": [
    {
      "children": [
        1
      ],
      "matrix": [
        1.0,
        0.0,
        0.0,
        0.0,
        0.0,
        2.220446049250313e-16,
        -1.0,
        0.0,
        0.0,
        1.0,
        2.220446049250313e-16,
        0.0,
        0.0,
        0.0,
        0.0,
        1.0
      ],
      "name": "Sketchfab_model"
    },
    {
      "children": [
        2
      ],
      "matrix": [
        1.0,
        0.0,
        0.0,
        0.0,
        0.0,
        0.0,
        1.0,
        0.0,
        0.0,
        -1.0,
        0.0,
        0.0,
        0.0,
        0.0,
        0.0,
        1.0
      ],
      "name": "b164e6783ac543489def09bbc032a2e5.fbx"
    },
    {
      "children": [
        3
      ],
      "name": "RootNode"
    },
    {
      "children": [
        4,
        5
      ],
      "matrix": [
        11.735943794250488,
        0.0,
        0.0,
        0.0,
        0.0,
        -5.129944169490395e-07,
        -11.735943794250476,
        0.0,
        0.0,
        99.9999999999999,
        -4.371139006309477e-06,
        0.0,
        0.0,
        5.274498462677002,
        0.0,
        1.0
      ],
      "name": "Cylinder"
    },
    {
      "mesh": 0,
      "name": "Cylinder_Madeira_0"
    },
    {
      "mesh": 1,
      "name": "Cylinder_Material.001_0"
    }
  ],
  "scene": 0,
  "scenes": [
    {
      "name": "Sketchfab_Scene",
      "nodes": [
        0
      ]
    }
  ]
}
