{
  "accessors": [
    {
      "bufferView": 2,
      "componentType": 5126,
      "count": 772,
      "max": [
        31.707557678222656,
        34.05665969848633,
        107.64242553710938
      ],
      "min": [
        -35.1834831237793,
        -29.550535202026367,
        0.0
      ],
      "type": "VEC3"
    },
    {
      "bufferView": 2,
      "byteOffset": 9264,
      "componentType": 5126,
      "count": 772,
      "max": [
        1.0,
        0.9968123435974121,
        0.9984753131866455
      ],
      "min": [
        -0.9990450739860535,
        -0.9833359718322754,
        -1.0
      ],
      "type": "VEC3"
    },
    {
      "bufferView": 1,
      "componentType": 5126,
      "count": 772,
      "max": [
        0.8206415176391602,
        0.9646072387695313
      ],
      "min": [
        0.20715920627117157,
        0.047523993998765945
      ],
      "type": "VEC2"
    },
    {
      "bufferView": 0,
      "componentType": 5125,
      "count": 816,
      "type": "SCALAR"
    },
    {
      "bufferView": 2,
      "byteOffset": 18528,
      "componentType": 5126,
      "count": 274,
      "max": [
        41.1986083984375,
        44.49755859375,
        40.87031555175781
      ],
      "min": [
        -42.97868347167969,
        -39.71125030517578,
        -7.397968292236328
      ],
      "type": "VEC3"
    },
    {
      "bufferView": 2,
      "byteOffset": 21816,
      "componentType": 5126,
      "count": 274,
      "max": [
        0.9434040784835815,
        0.9308204650878906,
        0.989007294178009
      ],
      "min": [
        -0.9613474011421204,
        -0.953644335269928,
        -0.9988848567008972
      ],
      "type": "VEC3"
    },
    {
      "bufferView": 1,
      "byteOffset": 6176,
      "componentType": 5126,
      "count": 274,
      "max": [
        0.9366880059242249,
        0.9833287596702576
      ],
      "min": [
        0.027164116501808167,
        0.017481908202171326
      ],
      "type": "VEC2"
    },
    {
      "bufferView": 0,
      "byteOffset": 3264,
      "componentType": 5125,
      "count": 324,
      "type": "SCALAR"
    },
    {
      "bufferView": 2,
      "byteOffset": 25104,
      "componentType": 5126,
      "count": 274,
      "max": [
        38.90580749511719,
        37.5108528137207,
        96.21428680419922
      ],
      "min": [
        -37.91642761230469,
        -40.28282165527344,
        48.718780517578125
      ],
      "type": "VEC3"
    },
    {
      "bufferView": 2,
      "byteOffset": 28392,
      "componentType": 5126,
      "count": 274,
      "max": [
        0.97492516040802,
        0.9723852276802063,
        0.9964074492454529
      ],
      "min": [
        -0.9467554688453674,
        -0.9582756161689758,
        -0.9888690710067749
      ],
      "type": "VEC3"
    },
    {
      "bufferView": 1,
      "byteOffset": 8368,
      "componentType": 5126,
      "count": 274,
      "max": [
        0.9912863373756409,
        0.9932270050048828
      ],
      "min": [
        0.013400491327047348,
        0.01232958771288395
      ],
      "type": "VEC2"
    },
    {
      "bufferView": 0,
      "byteOffset": 4560,
      "componentType": 5125,
      "count": 324,
      "type": "SCALAR"
    },
    {
      "bufferView": 2,
      "byteOffset": 31680,
      "componentType": 5126,
      "count": 178,
      "max": [
        -4.851222991943359,
        52.856842041015625,
        94.8636474609375
      ],
      "min": [
        -54.43012619018555,
        3.606893539428711,
        60.795631408691406
      ],
      "type": "VEC3"
    },
    {
      "bufferView": 2,
      "byteOffset": 33816,
      "componentType": 5126,
      "count": 178,
      "max": [
        0.9646916389465332,
        0.978935956954956,
        0.9893815517425537
      ],
      "min": [
        -0.9614627957344055,
        -0.9740855097770691,
        -0.9969490170478821
      ],
      "type": "VEC3"
    },
    {
      "bufferView": 1,
      "byteOffset": 10560,
      "componentType": 5126,
      "count": 178,
      "max": [
        0.9863289594650269,
        0.979793906211853
      ],
      "min": [
        0.012118250131607056,
        0.023412436246871948
      ],
      "type": "VEC2"
    },
    {
      "bufferView": 0,
      "byteOffset": 5856,
      "componentType": 5125,
      "count": 228,
      "type": "SCALAR"
    }
  ],
  "asset": {
    "extras": {
      "author": "marcelosujo (https://sketchfab.com/marcelosujo)",
      "license": "CC-BY-4.0 (http://creativecommons.org/licenses/by/4.0/)",
      "source": "https://sketchfab.com/3d-models/arvore-3530d4e265e646e48189517f76a8991e",
      "title": "Árvore"
    },
    "generator": "Sketchfab-12.64.0",
    "version": "2.0"
  },
  "bufferViews": [
    {
      "buffer": 0,
      "byteLength": 6768,
      "name": "floatBufferViews",
      "target": 34963
    },
    {
      "buffer": 0,
      "byteLength": 11984,
      "byteOffset": 6768,
      "byteStride": 8,
      "name": "floatBufferViews",
      "target": 34962
    },
    {
      "buffer": 0,
      "byteLength": 35952,
      "byteOffset": 18752,
      "byteStride": 12,
      "name": "floatBufferViews",
      "target": 34962
    }
  ],
  "buffers": [
    {
      "byteLength": 54704,
      "uri": "scene.bin"
    }
  ],
  "images": [
    {
      "uri": "textures/01_-_Default_baseColor.png"
    },
    {
      "uri": "textures/02_-_Default_baseColor.png"
    },
    {
      "uri": "textures/03_-_Default_baseColor.png"
    },
    {
      "uri": "textures/07_-_Default_baseColor.png"
    }
  ],
  "materials": [
    {
      "doubleSided": true,
      "name": "01_-_Default",
      "pbrMetallicRoughness": {
        "baseColorTexture": {
          "index": 0
        },
        "metallicFactor": 0.0,
        "roughnessFactor": 0.6
      }
    },
    {
      "doubleSided": true,
      "name": "02_-_Default",
      "pbrMetallicRoughness": {
        "baseColorTexture": {
          "index": 1
        },
        "metallicFactor": 0.0,
        "roughnessFactor": 0.6
      }
    },
    {
      "doubleSided": true,
      "name": "03_-_Default",
      "pbrMetallicRoughness": {
        "baseColorTexture": {
          "index": 2
        },
        "metallicFactor": 0.0,
        "roughnessFactor": 0.6
      }
    },
    {
      "doubleSided": true,
      "name": "07_-_Default",
      "pbrMetallicRoughness": {
        "baseColorTexture": {
          "index": 3
        },
        "metallicFactor": 0.0,
        "roughnessFactor": 0.6
      }
    }
  ],
  "meshes": [
    {
      "name": "Object_0",
      "primitives": [
        {
          "attributes": {
            "NORMAL": 1,
            "POSITION": 0,
            "TEXCOORD_0": 2
          },
          "indices": 3,
          "material": 0,
          "mode": 4
        }
      ]
    },
    {
      "name": "Object_1",
      "primitives": [
        {
          "attributes": {
            "NORMAL": 5,
            "POSITION": 4,
            "TEXCOORD_0": 6
          },
          "indices": 7,
          "material": 1,
          "mode": 4
        }
      ]
    },
    {
      "name": "Object_2",
      "primitives": [
        {
          "attributes": {
            "NORMAL": 9,
            "POSITION": 8,
            "TEXCOORD_0": 10
          },
          "indices": 11,
          "material": 2,
          "mode": 4
        }
      ]
    },
    {
      "name": "Object_3",
      "primitives": [
        {
          "attributes": {
            "NORMAL": 13,
            "POSITION": 12,
            "TEXCOORD_0": 14
          },
          "indices": 15,
          "material": 3,
          "mode": 4
        }
      ]
    }
  ],
  "nodes": [
    {
      "children": [
        1
      ],
      "matrix": [
        0.0,
        2.220446049250313e-16,
        -1.0,
        0.0,
        -1.0,
        0.0,
        0.0,
        0.0,
        0.0,
        1.0,
        2.220446049250313e-16,
        0.0,
        -0.2470320463180542,
        9.841077597128717e-16,
        -4.432027339935303,
        1.0
      ],
      "name": "Sketchfab_model"
    },
    {
      "children": [
        2
      ],
      "matrix": [
        1.0,
        0.0,
        0.0,
        0.0,
        0.0,
        0.0,
        1.0,
        0.0,
        0.0,
        -1.0,
        0.0,
        0.0,
        0.0,
        0.0,
        0.0,
        1.0
      ],
      "name": "659cd20b34a74b4ba8ec693ff4aaef9a.fbx"
    },
    {
      "children": [
        3,
        5,
        7,
        9
      ],
      "name": "RootNode"
    },
    {
      "children": [
        4
      ],
      "matrix": [
        1.0,
        0.0,
        0.0,
        0.0,
        0.0,
        2.220446049250313e-16,
        -1.0,
        0.0,
        0.0,
        1.0,
        2.220446049250313e-16,
        0.0,
        -2.300506591796875,
        0.0,
        -5.8256988525390625,
        1.0
      ],
      "name": "Cylinder001"
    },
    {
      "mesh": 0,
      "name": "Object_4"
    },
    {
      "children": [
        6
      ],
      "matrix": [
        -0.9303110837936401,
        0.12044726312160503,
        -0.3464299738407137,
        0.0,
        -0.36677142868730667,
        -0.3055124006319162,
        0.8787155148439083,
        0.0,
        2.2586650658353836e-07,
        0.9445393748013705,
        0.32839817876617045,
        0.0,
        7.239480972290039,
        109.83042907714844,
        15.034126281738281,
        1.0
      ],
      "name": "Cylinder002"
    },
    {
      "mesh": 1,
      "name": "Object_6"
    },
    {
      "children": [
        8
      ],
      "matrix": [
        1.0,
        0.0,
        0.0,
        0.0,
        0.0,
        2.220446049250313e-16,
        -1.0,
        0.0,
        0.0,
        1.0,
        2.220446049250313e-16,
        0.0,
        -17.001514434814453,
        33.416481018066406,
        -33.150413513183594,
        1.0
      ],
      "name": "Cylinder003"
    },
    {
      "mesh": 2,
      "name": "Object_8"
    },
    {
      "children": [
        10
      ],
      "matrix": [
        1.0,
        0.0,
        0.0,
        0.0,
        0.0,
        2.220446049250313e-16,
        -1.0,
        0.0,
        0.0,
        1.0,
        2.220446049250313e-16,
        0.0,
        55.23918151855469,
        0.0,
        10.3809814453125,
        1.0
      ],
      "name": "Cylinder004"
    },
    {
      "mesh": 3,
      "name": "Object_10"
    }
  ],
  "samplers": [
    {
      "magFilter": 9729,
      "minFilter": 9987,
      "wrapS": 10497,
      "wrapT": 10497
    }
  ],
  "scene": 0,
  "scenes": [
    {
      "name": "Sketchfab_Scene",
      "nodes": [
        0
      ]
    }
  ],
  "textures": [
    {
      "sampler": 0,
      "source": 0
    },
    {
      "sampler": 0,
      "source": 1
    },
    {
      "sampler": 0,
      "source": 2
    },
    {
      "sampler": 0,
      "source": 3
    }
  ]
}
