{
  "accessors": [
    {
      "bufferView": 2,
      "componentType": 5126,
      "count": 104,
      "max": [
        3.858668088912964,
        14.780149459838867,
        3.858668088912964
      ],
      "min": [
        -3.858668088912964,
        0.0,
        -3.858668088912964
      ],
      "type": "VEC3"
    },
    {
      "bufferView": 2,
      "byteOffset": 1248,
      "componentType": 5126,
      "count": 104,
      "max": [
        0.9238796234130859,
        0.44686466455459595,
        0.9238796234130859
      ],
      "min": [
        -0.9238795638084412,
        0.0,
        -0.9238796234130859
      ],
      "type": "VEC3"
    },
    {
      "bufferView": 1,
      "componentType": 5126,
      "count": 104,
      "max": [
        0.9716684818267822,
        0.7346972823143005
      ],
      "min": [
        0.015228461474180222,
        0.0157945454120636
      ],
      "type": "VEC2"
    },
    {
      "bufferView": 0,
      "componentType": 5125,
      "count": 120,
      "type": "SCALAR"
    },
    {
      "bufferView": 2,
      "byteOffset": 2496,
      "componentType": 5126,
      "count": 776,
      "max": [
        8.417237281799316,
        10.320789337158203,
        7.6091461181640625
      ],
      "min": [
        -7.890110015869141,
        -8.791985511779785,
        -7.449368953704834
      ],
      "type": "VEC3"
    },
    {
      "bufferView": 2,
      "byteOffset": 11808,
      "componentType": 5126,
      "count": 776,
      "max": [
        0.9259695410728455,
        0.9962176084518433,
        0.9238794445991516
      ],
      "min": [
        -0.9614490270614624,
        -0.7923725843429565,
        -0.9772171974182129
      ],
      "type": "VEC3"
    },
    {
      "bufferView": 1,
      "byteOffset": 832,
      "componentType": 5126,
      "count": 776,
      "max": [
        0.9817356467247009,
        0.983573317527771
      ],
      "min": [
        0.02155393362045288,
        0.024888359010219574
      ],
      "type": "VEC2"
    },
    {
      "bufferView": 0,
      "byteOffset": 480,
      "componentType": 5125,
      "count": 1128,
      "type": "SCALAR"
    },
    {
      "bufferView": 2,
      "byteOffset": 21120,
      "componentType": 5126,
      "count": 550,
      "max": [
        6.105736255645752,
        9.625187873840332,
        4.631387233734131
      ],
      "min": [
        -8.585126876831055,
        -7.717144966125488,
        -5.4253716468811035
      ],
      "type": "VEC3"
    },
    {
      "bufferView": 2,
      "byteOffset": 27720,
      "componentType": 5126,
      "count": 550,
      "max": [
        0.9911385774612427,
        0.9619128108024597,
        0.9787688851356506
      ],
      "min": [
        -0.9257335662841797,
        -1.0,
        -0.9868896007537842
      ],
      "type": "VEC3"
    },
    {
      "bufferView": 1,
      "byteOffset": 7040,
      "componentType": 5126,
      "count": 550,
      "max": [
        0.9623357057571411,
        0.7178133726119995
      ],
      "min": [
        0.01512618362903595,
        0.021644093096256256
      ],
      "type": "VEC2"
    },
    {
      "bufferView": 0,
      "byteOffset": 4992,
      "componentType": 5125,
      "count": 702,
      "type": "SCALAR"
    }
  ],
  "asset": {
    "extras": {
      "author": "Jéssica Magno (https://sketchfab.com/jessica_magno)",
      "license": "CC-BY-NC-4.0 (http://creativecommons.org/licenses/by-nc/4.0/)",
      "source": "https://sketchfab.com/3d-models/arvores-65c69e3b54664a12ba1d03cbcf6d2865",
      "title": "Árvores"
    },
    "generator": "Sketchfab-12.66.0",
    "version": "2.0"
  },
  "bufferViews": [
    {
      "buffer": 0,
      "byteLength": 7800,
      "name": "floatBufferViews",
      "target": 34963
    },
    {
      "buffer": 0,
      "byteLength": 11440,
      "byteOffset": 7800,
      "byteStride": 8,
      "name": "floatBufferViews",
      "target": 34962
    },
    {
      "buffer": 0,
      "byteLength": 34320,
      "byteOffset": 19240,
      "byteStride": 12,
      "name": "floatBufferViews",
      "target": 34962
    }
  ],
  "buffers": [
    {
      "byteLength": 53560,
      "uri": "scene.bin"
    }
  ],
  "images": [
    {
      "uri": "textures/material_0_baseColor.png"
    },
    {
      "uri": "textures/arvore-1_baseColor.png"
    },
    {
      "uri": "textures/arvore-2_baseColor.png"
    }
  ],
  "materials": [
    {
      "doubleSided": true,
      "name": "material_0",
      "pbrMetallicRoughness": {
        "baseColorTexture": {
          "index": 0
        },
        "metallicFactor": 0.0,
        "roughnessFactor": 0.5
      }
    },
    {
      "doubleSided": true,
      "name": "arvore-1",
      "pbrMetallicRoughness": {
        "baseColorTexture": {
          "index": 1
        },
        "metallicFactor": 0.0,
        "roughnessFactor": 0.5
      }
    },
    {
      "doubleSided": true,
      "name": "arvore-2",
      "pbrMetallicRoughness": {
        "baseColorTexture": {
          "index": 2
        },
        "metallicFactor": 0.0,
        "roughnessFactor": 0.5
      }
    }
  ],
  "meshes": [
    {
      "name": "Object_0",
      "primitives": [
        {
          "attributes": {
            "NORMAL": 1,
            "POSITION": 0,
            "TEXCOORD_0": 2
          },
          "indices": 3,
          "material": 1,
          "mode": 4
        }
      ]
    },
    {
      "name": "Object_1",
      "primitives": [
        {
          "attributes": {
            "NORMAL": 5,
            "POSITION": 4,
            "TEXCOORD_0": 6
          },
          "indices": 7,
          "material": 2,
          "mode": 4
        }
      ]
    },
    {
      "name": "Object_2",
      "primitives": [
        {
          "attributes": {
            "NORMAL": 9,
            "POSITION": 8,
            "TEXCOORD_0": 10
          },
          "indices": 11,
          "material": 0,
          "mode": 4
        }
      ]
    }
  ],
  "nodes": [
    {
      "children": [
        1
      ],
      "matrix": [
        1.0,
        0.0,
        0.0,
        0.0,
        0.0,
        2.220446049250313e-16,
        -1.0,
        0.0,
        0.0,
        1.0,
        2.220446049250313e-16,
        0.0,
        0.0,
        0.0,
        0.0,
        1.0
      ],
      "name": "Sketchfab_model"
    },
    {
      "children": [
        2
      ],
      "name": "root"
    },
    {
      "children": [
        3,
        5,
        7
      ],
      "matrix": [
        1.0,
        0.0,
        0.0,
        0.0,
        0.0,
        2.220446049250313e-16,
        1.0,
        0.0,
        0.0,
        -1.0,
        2.220446049250313e-16,
        0.0,
        0.0,
        0.0,
        0.0,
        1.0
      ],
      "name": "GLTF_SceneRootNode"
    },
    {
      "children": [
        4
      ],
      "matrix": [
        1.0,
        0.0,
        0.0,
        0.0,
        0.0,
        1.0,
        0.0,
        0.0,
        0.0,
        0.0,
        1.0,
        0.0,
        -0.044567108154296875,
        0.0,
        -0.5156211853027344,
        1.0
      ],
      "name": "arvore-1_0"
    },
    {
      "mesh": 0,
      "name": "Object_4"
    },
    {
      "children": [
        6
      ],
      "matrix": [
        1.0,
        0.0,
        0.0,
        0.0,
        0.0,
        1.0,
        0.0,
        0.0,
        0.0,
        0.0,
        1.0,
        0.0,
        14.08615493774414,
        8.805486679077148,
        -0.6418876647949219,
        1.0
      ],
      "name": "arvore-2_1"
    },
    {
      "mesh": 1,
      "name": "Object_6"
    },
    {
      "children": [
        8
      ],
      "matrix": [
        1.0,
        0.0,
        0.0,
        0.0,
        0.0,
        1.0,
        0.0,
        0.0,
        0.0,
        0.0,
        1.0,
        0.0,
        -12.231620788574219,
        7.6783647537231445,
        -0.06681203842163086,
        1.0
      ],
      "name": "arvore-3_2"
    },
    {
      "mesh": 2,
      "name": "Object_8"
    }
  ],
  "samplers": [
    {
      "magFilter": 9729,
      "minFilter": 9987,
      "wrapS": 10497,
      "wrapT": 10497
    }
  ],
  "scene": 0,
  "scenes": [
    {
      "name": "Sketchfab_Scene",
      "nodes": [
        0
      ]
    }
  ],
  "textures": [
    {
      "sampler": 0,
      "source": 0
    },
    {
      "sampler": 0,
      "source": 1
    },
    {
      "sampler": 0,
      "source": 2
    }
  ]
}
